<?xml version="1.0" encoding="utf-8"?>
<!-- Generator: Adobe Illustrator 24.0.0, SVG Export Plug-In . SVG Version: 6.00 Build 0)  -->
<svg version="1.1" id="Layer_1" xmlns="http://www.w3.org/2000/svg" xmlns:xlink="http://www.w3.org/1999/xlink" x="0px" y="0px"
	 width="24px" height="24px" viewBox="0 0 24 24" enable-background="new 0 0 24 24" xml:space="preserve">
<rect x="0" y="0" transform="matrix(6.123234e-17 -1 1 6.123234e-17 1.364242e-12 24)" fill="#EFEFEF" width="24" height="24"/>
<rect x="4" y="16" transform="matrix(6.123234e-17 -1 1 6.123234e-17 -12 24)" fill="#1B1713" width="4" height="4"/>
<rect x="4" y="10" transform="matrix(6.123234e-17 -1 1 6.123234e-17 -6 18)" fill="#1B1713" width="4" height="4"/>
<rect x="4" y="4" transform="matrix(6.123234e-17 -1 1 6.123234e-17 0 12)" fill="#1B1713" width="4" height="4"/>
<g>
	<rect x="10" y="16" transform="matrix(6.123234e-17 -1 1 6.123234e-17 -6 30)" fill="#1B1713" width="4" height="4"/>
	<rect x="10" y="10" transform="matrix(6.123234e-17 -1 1 6.123234e-17 9.094947e-13 24)" fill="#1B1713" width="4" height="4"/>
	<rect x="10" y="4" transform="matrix(6.123234e-17 -1 1 6.123234e-17 6 18)" fill="#1B1713" width="4" height="4"/>
</g>
<g>
	<rect x="14" y="19" transform="matrix(6.123234e-17 -1 1 6.123234e-17 -5 34)" fill="#1B1713" width="1" height="1"/>
	<rect x="14" y="14" transform="matrix(6.123234e-17 -1 1 6.123234e-17 1.818989e-12 29)" fill="#1B1713" width="1" height="1"/>
	<rect x="14" y="9" transform="matrix(6.123234e-17 -1 1 6.123234e-17 5 24)" fill="#1B1713" width="1" height="1"/>
	<rect x="14" y="4" transform="matrix(6.123234e-17 -1 1 6.123234e-17 10 19)" fill="#1B1713" width="1" height="1"/>
	<rect x="19" y="19" transform="matrix(6.123234e-17 -1 1 6.123234e-17 1.818989e-12 39)" fill="#1B1713" width="1" height="1"/>
	<rect x="19" y="14" transform="matrix(6.123234e-17 -1 1 6.123234e-17 5 34)" fill="#1B1713" width="1" height="1"/>
	<rect x="19" y="9" transform="matrix(6.123234e-17 -1 1 6.123234e-17 10 29)" fill="#1B1713" width="1" height="1"/>
	<rect x="19" y="4" transform="matrix(6.123234e-17 -1 1 6.123234e-17 15 24)" fill="#1B1713" width="1" height="1"/>
</g>
</svg>
