<?xml version="1.0" encoding="utf-8"?>
<!-- Generator: Adobe Illustrator 24.0.0, SVG Export Plug-In . SVG Version: 6.00 Build 0)  -->
<svg version="1.1" id="Layer_1" xmlns="http://www.w3.org/2000/svg" xmlns:xlink="http://www.w3.org/1999/xlink" x="0px" y="0px"
	 width="32px" height="32px" viewBox="0 0 32 32" enable-background="new 0 0 32 32" xml:space="preserve">
<rect x="-0.01" y="0" transform="matrix(6.123234e-17 -1 1 6.123234e-17 -0.0102 31.9898)" fill="#EFEFEF" width="32" height="32"/>
<rect x="-0.01" y="24" transform="matrix(6.123234e-17 -1 1 6.123234e-17 -24.0102 31.9898)" fill="#1B1713" width="8" height="8"/>
<rect x="-0.01" y="12" transform="matrix(6.123234e-17 -1 1 6.123234e-17 -12.0102 19.9898)" fill="#1B1713" width="8" height="8"/>
<rect x="-0.01" y="0" transform="matrix(6.123234e-17 -1 1 6.123234e-17 -0.0102 7.9898)" fill="#1B1713" width="8" height="8"/>
<g>
	
		<rect x="11.99" y="24" transform="matrix(6.123234e-17 -1 1 6.123234e-17 -12.0102 43.9898)" fill="#1B1713" width="8" height="8"/>
	<rect x="11.99" y="12" transform="matrix(6.123234e-17 -1 1 6.123234e-17 -0.0102 31.9898)" fill="#1B1713" width="8" height="8"/>
	<rect x="11.99" y="0" transform="matrix(6.123234e-17 -1 1 6.123234e-17 11.9898 19.9898)" fill="#1B1713" width="8" height="8"/>
</g>
<g>
	
		<rect x="19.99" y="30" transform="matrix(6.123234e-17 -1 1 6.123234e-17 -10.0102 51.9898)" fill="#1B1713" width="2" height="2"/>
	<rect x="19.99" y="20" transform="matrix(6.123234e-17 -1 1 6.123234e-17 -0.0102 41.9898)" fill="#1B1713" width="2" height="2"/>
	<rect x="19.99" y="10" transform="matrix(6.123234e-17 -1 1 6.123234e-17 9.9898 31.9898)" fill="#1B1713" width="2" height="2"/>
	<rect x="19.99" y="0" transform="matrix(6.123234e-17 -1 1 6.123234e-17 19.9898 21.9898)" fill="#1B1713" width="2" height="2"/>
	<rect x="29.99" y="30" transform="matrix(6.123234e-17 -1 1 6.123234e-17 -0.0102 61.9898)" fill="#1B1713" width="2" height="2"/>
	<rect x="29.99" y="20" transform="matrix(6.123234e-17 -1 1 6.123234e-17 9.9898 51.9898)" fill="#1B1713" width="2" height="2"/>
	<rect x="29.99" y="10" transform="matrix(6.123234e-17 -1 1 6.123234e-17 19.9898 41.9898)" fill="#1B1713" width="2" height="2"/>
	<rect x="29.99" y="0" transform="matrix(6.123234e-17 -1 1 6.123234e-17 29.9898 31.9898)" fill="#1B1713" width="2" height="2"/>
</g>
</svg>
